<svg width="500" height="500" viewBox="0 0 500 500" fill="none" xmlns="http://www.w3.org/2000/svg">
<g clip-path="url(#clip0_0_1)">
<path d="M499.5 250C499.5 387.795 387.795 499.5 250 499.5C112.205 499.5 0.5 387.795 0.5 250C0.5 112.205 112.205 0.5 250 0.5C387.795 0.5 499.5 112.205 499.5 250Z" stroke="black"/>
</g>
<path d="M231.983 331.822C277.162 340.604 320.905 311.099 329.686 265.921C338.468 220.743 308.963 177 263.785 168.218C218.607 159.436 174.864 188.941 166.082 234.119C157.3 279.298 186.805 323.041 231.983 331.822Z" fill="#FFC722"/>
<path d="M229.848 217.881L229.845 217.883C222.899 223.513 214.724 227.303 205.308 229.251C195.913 231.129 185.249 230.916 173.307 228.595C161.365 226.274 151.397 222.476 143.388 217.215C135.389 211.881 129.195 205.299 124.796 197.462C120.46 189.628 117.802 180.753 116.83 170.825C115.857 160.894 116.485 150.176 118.722 138.669C121.709 123.303 126.773 110.438 133.901 100.06C141.099 89.64 150.45 82.3062 161.96 78.0448C173.462 73.7869 187.174 73.1871 203.121 76.2869C219.001 79.3738 231.388 85.0465 240.324 93.2756L240.325 93.2765C249.331 101.526 255.19 111.815 257.892 124.16L257.893 124.162C260.668 136.536 260.563 150.435 257.563 165.868C255.34 177.307 251.917 187.446 247.294 196.289C242.686 205.061 236.87 212.255 229.848 217.881ZM148.941 172.831L148.941 172.836C150.114 180.896 153.08 187.556 157.859 192.782L157.862 192.785C162.665 197.958 169.482 201.381 178.265 203.088C187.18 204.821 194.85 204.215 201.243 201.217L201.247 201.216C207.637 198.16 212.817 193.081 216.789 186.018C220.834 178.914 223.865 170.141 225.892 159.712C228.939 144.038 228.46 131.078 224.393 120.871C220.296 110.589 211.52 104.179 198.202 101.59C189.352 99.87 181.676 100.511 175.204 103.562C168.825 106.552 163.58 111.616 159.46 118.72L159.459 118.722C155.427 125.759 152.396 134.532 150.356 145.029C148.328 155.459 147.852 164.728 148.941 172.831ZM392.51 234.247L392.51 234.248C384.105 244.147 373.409 250.774 360.408 254.124C347.411 257.407 332.504 257.425 315.678 254.155L274.571 246.164L303.332 98.1978L348.96 107.067C364.308 110.05 377.054 115.407 387.219 123.121L387.221 123.123C397.393 130.765 404.516 140.572 408.602 152.555L408.602 152.556C412.696 164.463 413.215 178.356 410.125 194.255C406.875 210.971 400.995 224.291 392.51 234.247ZM323.469 229.621C338.758 232.593 351.004 230.684 360.121 223.783C369.291 216.91 375.427 205.271 378.595 188.972C380.742 177.927 380.9 168.505 379.034 160.724C377.251 152.887 373.532 146.612 367.871 141.929C362.288 137.268 354.896 134.057 345.728 132.275L329.151 129.053L328.661 128.958L328.565 129.448L309.712 226.438L309.617 226.929L310.108 227.024L323.469 229.621ZM153.501 242.3L181.384 247.72L163.28 340.857L163.185 341.348L163.676 341.444L180.868 344.786L176.307 368.253L159.114 364.911L158.623 364.816L158.528 365.307L152.622 395.686L123.26 389.979L129.165 359.599L129.261 359.108L128.77 359.013L66.5633 346.921L70.6965 325.658L153.501 242.3ZM133.332 335.545L133.822 335.641L133.918 335.15L138.829 309.883C139.29 307.512 139.871 304.703 140.571 301.46C140.571 301.459 140.571 301.457 140.572 301.456L142.872 291.764C143.639 288.534 144.333 285.678 144.954 283.195C145.656 280.657 146.14 278.88 146.406 277.872L146.542 277.356L146.018 277.254L145.214 277.098L144.899 277.037L144.712 277.298C142.904 279.827 141.043 282.275 139.128 284.642C137.23 286.936 135.071 289.323 132.65 291.801L132.649 291.802L97.7001 327.832L97.0572 328.494L97.9636 328.67L133.332 335.545ZM364.328 288.323L364.329 288.324C372.329 293.231 377.754 299.335 380.647 306.625C383.542 313.921 384.04 322.55 382.1 332.535C380.791 339.267 378.391 344.886 374.911 349.412L375.307 349.717L374.911 349.412C371.414 353.962 367.277 357.577 362.499 360.266L362.744 360.702L362.499 360.267C357.698 362.971 352.69 364.966 347.477 366.259L346.911 366.399L347.136 366.937L377.366 439.372L343.992 432.885L320.134 369.176L320.036 368.914L319.761 368.861L303.182 365.638L302.692 365.543L302.596 366.034L291.582 422.697L261.416 416.834L290.178 268.867L332.491 277.092C345.784 279.676 356.391 283.426 364.328 288.323ZM315.995 299.721L315.505 299.626L315.409 300.117L307.587 340.359L307.491 340.85L307.982 340.946L318.03 342.899C328.374 344.91 336.221 344.638 341.469 341.954L341.47 341.953C346.807 339.211 350.13 334.339 351.474 327.428C352.87 320.243 351.419 314.554 347.019 310.482C342.74 306.471 335.516 303.516 325.442 301.557L315.995 299.721ZM193.293 403.592L222.054 255.625L252.222 261.489L223.46 409.456L193.293 403.592Z" stroke="black"/>
<path d="M224.087 222.318L224.086 222.32C218.341 229.173 211.04 234.452 202.168 238.162C193.304 241.798 182.795 243.624 170.63 243.624C158.464 243.624 147.955 241.798 139.09 238.161C130.22 234.452 122.883 229.173 117.07 222.32C111.319 215.457 107.016 207.252 104.167 197.692C101.317 188.128 99.8891 177.487 99.8891 165.765C99.8891 150.112 102.406 136.517 107.422 124.969C112.5 113.367 120.28 104.384 130.766 98.0046C141.243 91.6304 154.589 88.4252 170.835 88.4252C187.012 88.4252 200.253 91.6303 210.595 98.0031L210.597 98.0038C221.012 104.383 228.726 113.366 233.734 124.968L233.735 124.97C238.821 136.587 241.37 150.25 241.37 165.973C241.37 177.625 239.944 188.231 237.093 197.794C234.244 207.284 229.908 215.455 224.087 222.318ZM136.071 193.533L136.073 193.538C138.762 201.227 142.944 207.199 148.632 211.416L148.635 211.418C154.338 215.58 161.683 217.64 170.63 217.64C179.711 217.64 187.125 215.581 192.829 211.418L192.832 211.416C198.522 207.197 202.638 201.223 205.189 193.532C207.804 185.787 209.106 176.597 209.106 165.973C209.106 150.005 206.162 137.375 200.223 128.132C194.239 118.82 184.401 114.202 170.835 114.202C161.819 114.202 154.405 116.296 148.635 120.526C142.944 124.678 138.761 130.65 136.072 138.409L136.072 138.412C133.456 146.088 132.155 155.279 132.155 165.973C132.155 176.598 133.456 185.787 136.071 193.533ZM386.885 207.346L386.884 207.347C380.522 218.668 371.288 227.214 359.165 232.983C347.033 238.686 332.403 241.548 315.262 241.548L273.385 241.548L273.385 90.8123L319.868 90.8123C335.502 90.8123 349.037 93.6383 360.486 99.2715L360.488 99.2726C371.932 104.833 380.796 113.101 387.093 124.084L387.093 124.085C393.384 134.992 396.544 148.531 396.544 164.727C396.544 181.756 393.314 195.954 386.885 207.346ZM318.229 215.979C333.804 215.979 345.461 211.768 353.094 203.255C360.784 194.758 364.586 182.162 364.586 165.558C364.586 154.306 362.944 145.027 359.627 137.745C356.381 130.392 351.533 124.943 345.083 121.426C338.713 117.915 330.844 116.174 321.505 116.174L304.618 116.174L304.118 116.174L304.118 116.674L304.118 215.479L304.118 215.979L304.618 215.979L318.229 215.979ZM153.803 260.856L182.208 260.856L182.208 355.737L182.208 356.237L182.708 356.237L200.223 356.237L200.223 380.143L182.708 380.143L182.208 380.143L182.208 380.643L182.208 411.592L152.296 411.592L152.296 380.643L152.296 380.143L151.796 380.143L88.4252 380.143L88.4252 358.482L153.803 260.856ZM151.796 356.237L152.296 356.237L152.296 355.737L152.296 329.997C152.296 327.582 152.33 324.714 152.398 321.397C152.398 321.395 152.398 321.393 152.398 321.392L152.807 311.44C152.944 308.123 153.08 305.186 153.216 302.631C153.421 300.005 153.557 298.169 153.626 297.129L153.661 296.596L153.127 296.596L152.308 296.596L151.987 296.596L151.853 296.888C150.561 299.716 149.201 302.474 147.774 305.162C146.348 307.777 144.684 310.532 142.78 313.426L142.779 313.428L115.348 355.463L114.843 356.237L115.766 356.237L151.796 356.237ZM369.538 265.806L369.54 265.806C378.329 269.097 384.819 274.054 389.05 280.657C393.283 287.267 395.419 295.643 395.419 305.814C395.419 312.672 394.136 318.646 391.583 323.753L392.03 323.977L391.583 323.753C389.019 328.886 385.647 333.225 381.47 336.776L381.794 337.157L381.47 336.777C377.274 340.347 372.738 343.261 367.867 345.525L367.339 345.771L367.662 346.256L411.158 411.592L377.159 411.592L341.583 353.606L341.437 353.368L341.157 353.368L324.268 353.368L323.768 353.368L323.768 353.868L323.768 411.592L293.038 411.592L293.038 260.856L336.143 260.856C349.685 260.856 360.812 262.513 369.538 265.806ZM324.268 286.217L323.768 286.217L323.768 286.717L323.768 327.713L323.768 328.213L324.268 328.213L334.505 328.213C345.042 328.213 352.693 326.449 357.333 322.813L357.334 322.812C362.049 319.102 364.382 313.685 364.382 306.645C364.382 299.325 361.871 294.018 356.775 290.86C351.809 287.739 344.154 286.217 333.891 286.217L324.268 286.217ZM223.639 411.592L223.639 260.856L254.372 260.856L254.372 411.592L223.639 411.592Z" stroke="black" stroke-opacity="0.16"/>
<defs>
<clipPath id="clip0_0_1">
<rect width="500" height="500" fill="white"/>
</clipPath>
</defs>
</svg>
