<svg width="168" height="168" viewBox="0 0 168 168" fill="none" xmlns="http://www.w3.org/2000/svg">
<mask id="mask0_5_37" style="mask-type:luminance" maskUnits="userSpaceOnUse" x="0" y="0" width="168" height="168">
<path d="M167.333 84C167.333 37.9763 130.024 0.666687 84.0001 0.666687C37.9764 0.666687 0.666748 37.9763 0.666748 84C0.666748 130.024 37.9764 167.333 84.0001 167.333C130.024 167.333 167.333 130.024 167.333 84Z" fill="white"/>
</mask>
<g mask="url(#mask0_5_37)">
<path d="M84.0001 167.333C130.024 167.333 167.333 130.024 167.333 84C167.333 37.9762 130.024 0.666687 84.0001 0.666687C37.9763 0.666687 0.666748 37.9762 0.666748 84C0.666748 130.024 37.9763 167.333 84.0001 167.333Z" fill="#FFC722"/>
<path d="M77.9446 -0.45255C77.9446 11.2407 76.514 21.8963 73.6469 31.5129C70.7799 41.0615 66.4128 49.2957 60.5438 56.2163C54.7442 63.135 47.3751 68.4603 38.4346 72.1984C29.4964 75.8651 18.9196 77.6984 6.70487 77.6984C-5.50981 77.6984 -16.0868 75.8651 -25.0261 72.1984C-33.9652 68.4603 -41.3691 63.135 -47.2374 56.2163C-53.0378 49.2957 -57.3709 41.0278 -60.237 31.4096C-63.1029 21.7925 -64.536 11.1024 -64.536 -0.660092C-64.536 -16.3664 -62.011 -30.0317 -56.9616 -41.6557C-51.8437 -53.349 -43.9961 -62.4131 -33.4193 -68.8478C-22.8423 -75.2825 -9.39948 -78.5 6.90945 -78.5C23.1503 -78.5 36.4902 -75.2825 46.9327 -68.8478C57.4386 -62.4131 65.2204 -53.349 70.268 -41.6557C75.387 -29.9625 77.9446 -16.2279 77.9446 -0.45255ZM-31.2697 -0.45255C-31.2697 10.1338 -29.9733 19.2669 -27.3802 26.948C-24.7189 34.5576 -20.5906 40.4405 -14.9949 44.5893C-9.39929 48.6727 -2.16616 50.7143 6.70487 50.7143C15.7122 50.7143 23.0136 48.6727 28.6094 44.5893C34.2045 40.4405 38.266 34.5576 40.7898 26.948C43.3831 19.2669 44.6807 10.1338 44.6807 -0.45255C44.6807 -16.3664 41.7462 -28.8899 35.8771 -38.0232C30.0083 -47.1565 20.3525 -51.723 6.90945 -51.723C-2.02964 -51.723 -9.33104 -49.6472 -14.9949 -45.4958C-20.5906 -41.4135 -24.7189 -35.5323 -27.3802 -27.8521C-29.9733 -20.2412 -31.2697 -11.1079 -31.2697 -0.45255ZM233.119 -1.69799C233.119 15.3923 229.877 29.6808 223.395 41.1667C216.98 52.5814 207.667 61.1984 195.452 67.0099C183.238 72.752 168.532 75.623 151.337 75.623L108.96 75.623V-76.1129H155.943C171.637 -76.1129 185.25 -73.276 196.782 -67.6023C208.316 -61.9978 217.254 -53.6603 223.601 -42.5898C229.947 -31.5885 233.119 -17.9577 233.119 -1.69799ZM200.161 -0.867627C200.161 -12.0768 198.524 -21.2791 195.246 -28.4748C192.04 -35.7399 187.262 -41.1022 180.917 -44.5617C174.639 -48.0212 166.859 -49.7512 157.579 -49.7512H140.693V49.0536H154.304C169.794 49.0536 181.292 44.8671 188.798 36.4941C196.373 28.124 200.161 15.6691 200.161 -0.867627ZM36.7977 214.218H18.7831V245.667H-12.1288V214.218H-75.9999V191.905L-10.3888 93.9306H18.7831V189.312H36.7977V214.218ZM-12.1288 189.312V163.571C-12.1288 161.151 -12.0947 158.278 -12.0265 154.956C-11.8902 151.637 -11.7537 148.315 -11.6171 144.994C-11.4806 141.673 -11.3441 138.732 -11.2078 136.173C-11.0029 133.544 -10.8665 131.708 -10.7983 130.671H-11.6171C-12.9138 133.508 -14.2785 136.276 -15.7114 138.974C-17.1445 141.603 -18.8164 144.371 -20.7269 147.276L-48.1588 189.312H-12.1288ZM59.2144 245.667V93.9306H90.9466V245.667H59.2144ZM172.218 93.9306C185.796 93.9306 196.988 95.5913 205.79 98.9127C214.661 102.234 221.246 107.252 225.546 113.962C229.843 120.673 231.994 129.149 231.994 139.389C231.994 146.31 230.699 152.363 228.105 157.552C225.512 162.742 222.099 167.135 217.869 170.732C213.639 174.331 209.066 177.27 204.153 179.554L248.167 245.667H212.954L177.232 187.442H160.343V245.667H128.613V93.9306L172.218 93.9306ZM169.966 120.292H160.343V161.288H170.579C181.087 161.288 188.595 159.524 193.099 155.994C197.671 152.397 199.956 147.139 199.956 140.22C199.956 133.024 197.498 127.903 192.585 124.859C187.74 121.814 180.201 120.292 169.966 120.292Z" fill="#F6F6F6"/>
</g>
</svg>
