<svg width="500" height="500" viewBox="0 0 500 500" fill="none" xmlns="http://www.w3.org/2000/svg">
<g clip-path="url(#clip0_5_34)">
<path d="M250 500C388.071 500 500 388.071 500 250C500 111.929 388.071 0 250 0C111.929 0 0 111.929 0 250C0 388.071 111.929 500 250 500Z" fill="black"/>
<path d="M243.692 167.499C243.692 178.96 242.27 189.404 239.421 198.829C236.571 208.188 232.232 216.26 226.399 223.042C220.635 229.823 213.312 235.044 204.427 238.706C195.543 242.302 185.032 244.097 172.892 244.097C160.753 244.097 150.242 242.302 141.357 238.706C132.473 235.044 125.115 229.823 119.283 223.042C113.519 216.26 109.212 208.155 106.364 198.728C103.516 189.302 102.092 178.824 102.092 167.295C102.092 151.901 104.601 138.507 109.619 127.114C114.705 115.653 122.504 106.769 133.016 100.462C143.528 94.1549 156.888 91.0014 173.096 91.0014C189.236 91.0014 202.494 94.1549 212.871 100.462C223.314 106.769 231.046 115.653 236.064 127.114C241.151 138.575 243.692 152.037 243.692 167.499ZM135.152 167.499C135.152 177.875 136.441 186.827 139.018 194.354C141.663 201.813 145.766 207.579 151.327 211.647C156.888 215.649 164.076 217.649 172.892 217.649C181.844 217.649 189.1 215.649 194.662 211.647C200.222 207.579 204.258 201.813 206.766 194.354C209.343 186.827 210.633 177.875 210.633 167.499C210.633 151.901 207.716 139.626 201.885 130.674C196.052 121.722 186.456 117.247 173.096 117.247C164.212 117.247 156.955 119.281 151.327 123.35C145.766 127.351 141.663 133.116 139.018 140.643C136.441 148.103 135.152 157.055 135.152 167.499ZM397.909 166.278C397.909 183.029 394.687 197.033 388.244 208.292C381.869 219.48 372.613 227.925 360.474 233.621C348.335 239.25 333.72 242.063 316.631 242.063H274.516V93.3411H321.208C336.806 93.3411 350.335 96.1216 361.796 101.683C373.258 107.176 382.141 115.348 388.448 126.198C394.756 136.981 397.909 150.341 397.909 166.278ZM365.153 167.092C365.153 156.106 363.526 147.086 360.27 140.033C357.083 132.912 352.335 127.657 346.028 124.266C339.79 120.875 332.058 119.179 322.835 119.179H306.052V216.022H319.579C334.974 216.022 346.401 211.919 353.861 203.712C361.389 195.507 365.153 183.3 365.153 167.092ZM202.8 377.907H184.896V408.73H154.175V377.907H90.6982V356.036L155.904 260.008H184.896V353.494H202.8V377.907ZM154.175 353.494V328.266C154.175 325.893 154.209 323.077 154.277 319.821C154.412 316.567 154.548 313.312 154.683 310.058C154.819 306.802 154.955 303.919 155.09 301.411C155.294 298.833 155.429 297.036 155.497 296.018H154.683C153.395 298.8 152.039 301.512 150.615 304.157C149.19 306.734 147.529 309.446 145.63 312.294L118.367 353.494H154.175ZM225.077 408.73V260.008H256.613V408.73H225.077ZM337.383 260.008C350.877 260.008 362 261.635 370.748 264.891C379.564 268.147 386.109 273.063 390.381 279.641C394.653 286.218 396.79 294.526 396.79 304.563C396.79 311.345 395.502 317.28 392.925 322.365C390.347 327.452 386.956 331.758 382.752 335.284C378.548 338.812 374.004 341.692 369.121 343.931L412.863 408.73H377.869L342.367 351.663H325.581V408.73H294.048V260.008H337.383ZM335.145 285.845H325.581V326.028H335.754C346.198 326.028 353.659 324.298 358.135 320.839C362.679 317.314 364.95 312.159 364.95 305.377C364.95 298.323 362.508 293.306 357.625 290.321C352.81 287.337 345.317 285.845 335.145 285.845Z" fill="#F6F6F6"/>
<mask id="mask0_5_34" style="mask-type:luminance" maskUnits="userSpaceOnUse" x="166" y="166" width="168" height="168">
<path d="M331.512 267.326C341.081 222.308 312.344 178.057 267.326 168.488C222.308 158.919 178.057 187.656 168.488 232.674C158.919 277.692 187.656 321.943 232.674 331.512C277.692 341.081 321.943 312.344 331.512 267.326Z" fill="white"/>
</mask>
<g mask="url(#mask0_5_34)">
<path d="M232.674 331.512C277.692 341.081 321.943 312.344 331.512 267.326C341.081 222.308 312.344 178.057 267.326 168.488C222.308 158.919 178.057 187.656 168.488 232.674C158.919 277.692 187.656 321.943 232.674 331.512Z" fill="#FFC722"/>
<path d="M261.636 166.134C259.204 177.572 255.59 187.697 250.786 196.507C245.996 205.251 240.013 212.397 232.833 217.947C225.722 223.508 217.406 227.185 207.884 228.983C198.379 230.711 187.652 230.305 175.704 227.766C163.756 225.226 153.792 221.234 145.81 215.789C137.843 210.274 131.709 203.525 127.407 195.538C123.172 187.562 120.653 178.574 119.849 168.57C119.045 158.567 119.866 147.813 122.312 136.308C125.577 120.944 130.888 108.103 138.244 97.7825C145.681 87.4089 155.242 80.1745 166.925 76.0794C178.609 71.9844 192.427 71.6322 208.38 75.023C224.266 78.3996 236.645 84.3203 245.521 92.7855C254.46 101.264 260.187 111.748 262.693 124.235C265.269 136.737 264.915 150.703 261.636 166.134ZM154.808 143.427C152.607 153.782 151.976 162.985 152.915 171.037C153.936 179.034 156.751 185.647 161.362 190.868C165.987 196.026 172.637 199.527 181.314 201.371C190.125 203.244 197.691 202.765 204.014 199.934C210.349 197.039 215.545 192.129 219.596 185.211C223.729 178.237 226.898 169.573 229.099 159.218C232.407 143.652 232.141 130.792 228.299 120.638C224.457 110.484 215.962 104.01 202.812 101.215C194.069 99.3563 186.495 99.8687 180.092 102.752C173.77 105.581 168.509 110.476 164.309 117.435C160.19 124.34 157.023 133.004 154.808 143.427ZM413.678 197.178C410.125 213.895 403.983 227.197 395.254 237.085C386.607 246.916 375.705 253.408 362.549 256.553C349.408 259.631 334.426 259.381 317.608 255.806L276.157 246.996L307.704 98.5755L353.66 108.344C369.011 111.607 381.737 117.212 391.837 125.159C401.954 133.039 408.963 143.053 412.87 155.201C416.789 167.281 417.059 181.274 413.678 197.178ZM381.267 191.138C383.598 180.174 383.91 170.832 382.2 163.112C380.574 155.339 377.016 149.101 371.528 144.398C366.107 139.709 358.857 136.399 349.78 134.47L333.262 130.959L312.719 227.604L326.033 230.434C341.185 233.655 353.302 231.95 362.385 225.321C371.535 218.709 377.829 207.313 381.267 191.138ZM176.755 367.559L159.134 363.813L152.596 394.574L122.359 388.148L128.898 357.386L66.4226 344.107L71.0618 322.281L155.609 240.089L184.143 246.154L164.313 339.451L181.934 343.196L176.755 367.559ZM134.076 333.024L139.428 307.846C139.931 305.479 140.562 302.675 141.319 299.441C142.143 296.222 142.967 293.002 143.791 289.781C144.615 286.561 145.36 283.713 146.025 281.238C146.772 278.709 147.287 276.942 147.57 275.941L146.769 275.771C144.911 278.277 143 280.7 141.038 283.042C139.089 285.315 136.879 287.675 134.406 290.119L98.8336 325.533L134.076 333.024ZM192.144 402.981L223.691 254.56L254.73 261.158L223.182 409.578L192.144 402.981ZM334.226 278.055C347.507 280.878 358.109 284.83 366.028 289.908C374.014 295.002 379.413 301.279 382.223 308.737C385.032 316.194 385.373 324.932 383.244 334.948C381.805 341.718 379.279 347.37 375.664 351.905C372.048 356.443 367.797 360.031 362.911 362.67C358.025 365.311 352.941 367.234 347.661 368.447L376.967 442.266L342.524 434.945L319.688 370.566L303.168 367.055L291.063 424.007L260.026 417.409L291.574 268.989L334.226 278.055ZM326.542 303.372L317.13 301.371L308.606 341.471L318.618 343.6C328.897 345.784 336.607 345.62 341.747 343.104C346.966 340.536 350.295 335.868 351.734 329.1C353.23 322.061 351.89 316.541 347.717 312.542C343.611 308.556 336.553 305.5 326.542 303.372Z" fill="#F6F6F6"/>
</g>
</g>
<defs>
<clipPath id="clip0_5_34">
<rect width="500" height="500" fill="white"/>
</clipPath>
</defs>
</svg>
